<mxfile host="app.diagrams.net" agent="Mozilla/5.0 (X11; Linux x86_64) AppleWebKit/537.36 (KHTML, like Gecko) Chrome/123.0.0.0 Safari/537.36" version="24.8.4">
  <diagram name="Página-1" id="7D4l6DAr50W0di1Jof7r">
    <mxGraphModel dx="1434" dy="779" grid="1" gridSize="10" guides="1" tooltips="1" connect="1" arrows="1" fold="1" page="1" pageScale="1" pageWidth="827" pageHeight="1169" math="0" shadow="0">
      <root>
        <mxCell id="0" />
        <mxCell id="1" parent="0" />
        <mxCell id="9WUrTZO6ZyKFLVFyrr3_-1" value="" style="whiteSpace=wrap;html=1;aspect=fixed;" vertex="1" parent="1">
          <mxGeometry x="290" y="306" width="230" height="230" as="geometry" />
        </mxCell>
        <mxCell id="9WUrTZO6ZyKFLVFyrr3_-5" style="edgeStyle=orthogonalEdgeStyle;rounded=0;orthogonalLoop=1;jettySize=auto;html=1;exitX=0.5;exitY=0.5;exitDx=0;exitDy=0;exitPerimeter=0;" edge="1" parent="1" source="9WUrTZO6ZyKFLVFyrr3_-2" target="9WUrTZO6ZyKFLVFyrr3_-4">
          <mxGeometry relative="1" as="geometry">
            <mxPoint x="190" y="430" as="targetPoint" />
          </mxGeometry>
        </mxCell>
        <mxCell id="9WUrTZO6ZyKFLVFyrr3_-7" style="edgeStyle=orthogonalEdgeStyle;rounded=0;orthogonalLoop=1;jettySize=auto;html=1;exitX=0.5;exitY=0.5;exitDx=0;exitDy=0;exitPerimeter=0;" edge="1" parent="1" source="9WUrTZO6ZyKFLVFyrr3_-2" target="9WUrTZO6ZyKFLVFyrr3_-3">
          <mxGeometry relative="1" as="geometry" />
        </mxCell>
        <mxCell id="9WUrTZO6ZyKFLVFyrr3_-2" value="Usuário" style="shape=umlActor;verticalLabelPosition=bottom;verticalAlign=top;html=1;outlineConnect=0;" vertex="1" parent="1">
          <mxGeometry x="200" y="360" width="70" height="140" as="geometry" />
        </mxCell>
        <mxCell id="9WUrTZO6ZyKFLVFyrr3_-3" value="Busca professor" style="ellipse;whiteSpace=wrap;html=1;" vertex="1" parent="1">
          <mxGeometry x="354" y="320" width="120" height="80" as="geometry" />
        </mxCell>
        <mxCell id="9WUrTZO6ZyKFLVFyrr3_-4" value="Acessa dados do professor" style="ellipse;whiteSpace=wrap;html=1;" vertex="1" parent="1">
          <mxGeometry x="350" y="440" width="120" height="80" as="geometry" />
        </mxCell>
      </root>
    </mxGraphModel>
  </diagram>
</mxfile>
